#!OML:ASF F:\VICON\USERDATA\INSTALL\rory3\rory3.ASF
:FULLY-SPECIFIED
:DEGREES
66
root -0.9405329931451679 18.154550176000583 8.415054709705327 4.893251091742655 -4.029603729176685 -0.29124457461532693
lfemur 9.622586018634582 0.859493658582732 -24.92469340212186
ltibia 27.13071786791903
lfoot 35.630335689648184 -19.7092763082275
ltoes -17.076072354907375
rfemur -43.41612881976604 1.7649941059241974 22.10927602221522
rtibia 48.51467193924378
rfoot 3.9186578350405408 -3.5629363427091993
rtoes -6.44625988946916
lowerback 1.0 -0.18003886126856905 -1.5798518862749584
upperback -1.6794499515250756 -0.03782109222930363 1.7253033499503023
thorax -8.566423374222321 -0.3533229464156097 2.070641062115904
lowerneck -15.433741745432725 -2.4151183287939464 -1.786844411835865
upperneck 16.08460519380583 -1.8195300955829916 1.9877712212176117
head 7.612419969073977 -1.1141984514018641 0.5195866669627709
lclavicle 1.4135936961610442e-14 8.367074742702568e-15
lhumerus -37.12192830508654 -11.273776733238444 87.75048661467528
lradius 132.13439226773139
lwrist 33.856389436586255
lhand -28.038237950134608 -12.035758667566085
lfingers nan
lthumb -1.3363587920284214 18.118835602457562
rclavicle 1.9884303610277394e-14 1.0957211653915297e-14
rhumerus -72.18728221321409 5.974904950441018 -92.23258153477241
rradius 101.78894913205048
rwrist -17.64239077277732
rhand -20.169024592994905 1.0
rfingers nan
rthumb 6.188857880214658 10.10893751936788
67
root -0.9070567472896806 18.18000762773912 8.309018280756481 5.037136236559256 -3.929222059968002 -0.16503598299707295
lfemur 10.018701783058756 0.10441658950036059 -25.16577662933917
ltibia 27.306875572250632
lfoot 35.987956959721124 -22.31464343655434
ltoes -21.612939471989517
rfemur -42.89607405753525 1.6522964811231298 21.9385749800619
rtibia 42.389319449445956
rfoot 4.063953691185773 -3.7188282096714484
rtoes -9.791636734978095
lowerback 1.0 -0.3547169941373478 -1.3047915898077385
upperback -1.8517288863752412 -0.23520446952990803 1.7384861735205661
thorax -8.594173432279423 -0.4559918251344691 2.0485242392141196
lowerneck -15.213011405667594 -2.49228277299549 -1.7681404815202562
upperneck 16.122392532680802 -1.849457240858146 2.002068251190653
head 7.567361872894777 -1.1142539747618885 0.5224233742809594
lclavicle 4.975341060853996e-15 3.2950143694924586e-15
lhumerus -37.531106530959505 -11.441017057976484 87.79357239583345
lradius 132.25211444499354
lwrist 34.55313385970063
lhand -27.66680889995452 -11.737873023358553
lfingers nan
lthumb -0.9743458412406176 18.42141864569708
rclavicle 1.114820860025379e-14 6.0590721106451025e-15
rhumerus -72.38505593617656 5.463556256966347 -91.72832194754214
rradius 102.66356393342295
rwrist -16.89705183121443
rhand -19.998271852716545 1.0
rfingers nan
rthumb 6.362318988088225 10.098494264673965
68
root -0.9060618276734513 18.181725632649755 8.561351746668716 5.109183800695751 -3.851960707996802 0.22364807201542772
lfemur 10.016985869672304 -0.46376257640451124 -25.74031234636897
ltibia 28.322883204533486
lfoot 34.803326997827305 -18.758054463311645
ltoes -10.912643565871885
rfemur -42.12781370228437 1.4964881509739005 21.36952666029256
rtibia 36.30400844583919
rfoot 4.3860647618435635 -3.8183079302786096
rtoes -10.32867260318113
lowerback 1.0 -0.48430713277780546 -1.4016590866359513
upperback -2.0337362169908046 -0.4219970734791745 1.7219440428529857
thorax -8.714103867211142 -0.5323795062941598 2.166222542629297
lowerneck -14.957803711206703 -2.5771540755970723 -1.7231481352286737
upperneck 16.057607995119337 -1.881204422097273 1.9878317123538163
head 7.483512182290305 -1.1159993364946232 0.5159920317677376
lclavicle -5.305925691713524e-14 4.134258291377213e-15
lhumerus -38.400380024993964 -11.55156763070086 88.09353483807038
lradius 132.3998577158123
lwrist 35.391916379708185
lhand -27.696420587424868 -10.148027704566271
lfingers nan
lthumb -0.999545893105416 19.990846858957518
rclavicle -4.7066649162537506e-14 6.7502653718579055e-15
rhumerus -72.55783491035164 5.00159061033972 -91.35362531143426
rradius 103.40861616571421
rwrist -16.108051778264215
rhand -20.007221251113968 1.0
rfingers nan
rthumb 6.358658261686646 10.139738824045084
69
root -0.919519867116278 18.203673743857866 8.851214380247765 5.190243245903594 -3.7857177236710453 0.5547175214501875
lfemur 9.942395646735633 -0.9308623472205668 -26.34960172699399
ltibia 29.809922275229727
lfoot 34.50205059042298 -18.512529398481604
ltoes -4.785872271898737
rfemur -41.27877810495693 1.4002785725817357 20.829308531355764
rtibia 30.29362524090964
rfoot 4.934928265111974 -4.262285504061637
rtoes -10.51799727905409
lowerback 1.0 -0.5913628897869962 -1.675318265906819
upperback -2.125895427610195 -0.6202320112400059 1.724073806143956
thorax -8.65148269309304 -0.5898918923426432 2.303491682902894
lowerneck -14.94861014440257 -2.6973051644598396 -1.6692043923978834
upperneck 15.87046031831651 -1.9077671640979368 1.9393955605191266
head 7.3863287741289705 -1.1385984053486928 0.5011441378950277
lclavicle 7.047044415103188e-15 1.383681779723294e-15
lhumerus -39.195328669903844 -11.60984634388267 88.37235058716966
lradius 132.24681330672624
lwrist 36.13696579079855
lhand -27.816515624120946 -9.275970285770683
lfingers nan
lthumb -1.1037403445011338 20.84744999486811
rclavicle 1.3211103652760163e-14 4.1516960915489875e-15
rhumerus -72.434815488045 4.5881707280290245 -91.12111769668056
rradius 103.8613623671473
rwrist -15.401489703609478
rhand -19.945215224400894 1.0
rfingers nan
rthumb 6.419135448671155 10.407812374559793
70
root -0.9280093859444716 18.233639761586236 9.14568395845991 5.2081005245151015 -3.577612533954191 0.905416399839323
lfemur 9.804411051883438 -1.285016942256736 -26.805673035856955
ltibia 31.90837320182957
lfoot 33.87165760410854 -19.914499529873236
ltoes -5.0321918283177425
rfemur -40.48479188872318 1.136195678208019 20.26053527088154
rtibia 24.60739486450172
rfoot 5.623597610898538 -5.220223653194374
rtoes -10.827260232665711
lowerback 1.0 -0.7273041382583214 -1.9616722287157597
upperback -2.130835538847849 -0.8405233388160811 1.7554636568453637
thorax -8.571808061670477 -0.6638185114641663 2.5267507840334966
lowerneck -15.438666254443625 -2.8212886886124657 -1.7366298296943425
upperneck 15.615785121265368 -1.9149792253349887 1.9131763483265651
head 7.325062991249205 -1.1802787101537342 0.5047698046988475
lclavicle 2.0551504170496642e-14 -1.3965331473224324e-14
lhumerus -39.79115827532803 -11.514745759371056 88.70745943801404
lradius 131.68367893732838
lwrist 36.653496307838665
lhand -27.347754168639558 -8.971548976544518
lfingers nan
lthumb -0.6329418444406323 21.173458734717215
rclavicle 2.6881475279276155e-14 -1.1223852735303407e-14
rhumerus -71.95088325419933 4.111761601745729 -90.80459704153274
rradius 104.13976506798662
rwrist -14.90674724668446
rhand -19.78698114158863 1.0
rfingers nan
rthumb 6.569059115716611 10.902442303066277
